<?xml version="1.0" encoding="UTF-8"?><svg id="Layer_1" xmlns="http://www.w3.org/2000/svg" xmlns:xlink="http://www.w3.org/1999/xlink" viewBox="0 0 476.92 122.55"><defs><style>.cls-1{fill:#fff;}.cls-2{fill:url(#New_Gradient_Swatch_2-2);}.cls-3{fill:url(#New_Gradient_Swatch_2);}</style><linearGradient id="New_Gradient_Swatch_2" x1="64.23" y1="-6.65" x2="-3.19" y2="109.42" gradientUnits="userSpaceOnUse"><stop offset="0" stop-color="#52ffd8"/><stop offset="1" stop-color="#0091eb"/></linearGradient><linearGradient id="New_Gradient_Swatch_2-2" x1="40.81" y1="127.21" x2="107.79" y2="11.73" xlink:href="#New_Gradient_Swatch_2"/></defs><path class="cls-1" d="M152.64,56.96v9.96h-24.1v6.07c.04,1.02.83,1.81,1.85,1.85h22.25v3.88h-22.25c-3.17,0-5.73-2.56-5.73-5.73h0v-16.03c0-3.17,2.56-5.73,5.73-5.73h16.48c3.17-.04,5.73,2.53,5.77,5.73t0,0ZM148.68,63.03v-6.07c0-1.02-.83-1.85-1.85-1.85h-16.48c-1.02.04-1.81.83-1.85,1.85v6.07h20.18Z"/><path class="cls-1" d="M160.37,42.25v30.74c.04,1.02.83,1.81,1.85,1.85h4.64v3.88h-4.64c-3.17,0-5.73-2.56-5.73-5.73h0v-30.74h3.88Z"/><path class="cls-1" d="M198.01,56.96v9.96h-24.1v6.07c.04,1.02.83,1.81,1.85,1.85h22.25v3.88h-22.25c-3.17,0-5.73-2.56-5.73-5.73h0v-16.03c0-3.17,2.56-5.73,5.73-5.73h16.48c3.17-.04,5.77,2.53,5.77,5.73t0,0ZM194.12,63.03v-6.07c0-1.02-.83-1.85-1.85-1.85h-16.48c-1.02.04-1.81.83-1.85,1.85v6.07h20.18Z"/><path class="cls-1" d="M229.84,74.84v3.88h-22.25c-3.17,0-5.73-2.56-5.73-5.73h0v-16.03c0-3.17,2.56-5.73,5.73-5.73h22.18v3.88h-22.18c-1.02.04-1.81.83-1.85,1.85v16.03c.04,1.02.83,1.81,1.85,1.85h22.25Z"/><path class="cls-1" d="M237.57,55.11v17.84c.04,1.02.83,1.81,1.85,1.85h10.03v3.88h-10.03c-3.17,0-5.7-2.56-5.73-5.7v-30.78h3.92v9.01h11.88v3.88h-11.92Z"/><path class="cls-1" d="M274.23,51.23v3.88h-15.43c-1.02.04-1.81.83-1.85,1.85v21.72h-3.88v-21.72c0-3.17,2.56-5.73,5.73-5.73h15.43Z"/><path class="cls-1" d="M299.24,51.23c3.17,0,5.77,2.53,5.77,5.7v16.07c0,3.17-2.56,5.73-5.73,5.73h-16.52c-3.17,0-5.73-2.56-5.73-5.73h0v-16.03c0-3.17,2.56-5.73,5.73-5.73h16.48ZM282.76,55.11c-1.02.04-1.81.83-1.85,1.85v16.03c.04,1.02.83,1.81,1.85,1.85h16.48c1.02,0,1.85-.83,1.85-1.85v-16.03c0-1.02-.83-1.85-1.85-1.85h-16.48Z"/><path class="cls-1" d="M337.22,56.96v21.72h-3.88v-21.72c-.04-1.02-.83-1.81-1.85-1.85h-16.48c-1.02,0-1.85.83-1.89,1.85v21.72h-3.88v-27.46h22.25c3.17,0,5.73,2.53,5.73,5.7v.04Z"/><path class="cls-1" d="M370.07,56.96v9.96h-24.1v6.07c.04,1.02.83,1.81,1.85,1.85h22.25v3.88h-22.25c-3.17,0-5.73-2.56-5.73-5.73h0v-16.03c0-3.17,2.56-5.73,5.73-5.73h16.48c3.17-.04,5.77,2.53,5.77,5.73t0,0ZM366.15,63.03v-6.07c0-1.02-.83-1.85-1.85-1.85h-16.48c-1.02.04-1.81.83-1.85,1.85v6.07h20.18Z"/><path class="cls-1" d="M402.92,51.23v21.72c0,3.17-2.56,5.73-5.73,5.73h-16.52c-3.17,0-5.73-2.56-5.73-5.73h0v-21.72h3.88v21.72c.04,1.02.83,1.81,1.85,1.85h16.48c1.02,0,1.85-.83,1.89-1.85v-21.72h3.88Z"/><path class="cls-1" d="M448.97,56.96v21.72h-3.85v-21.72c-.04-1.02-.87-1.85-1.89-1.85h-11.43c-1.02,0-1.85.83-1.85,1.85v21.72h-3.88v-21.72c-.04-1.02-.83-1.81-1.85-1.85h-11.47c-1.02.04-1.81.83-1.85,1.85v21.72h-3.92v-27.46h36.28c3.13,0,5.7,2.53,5.73,5.66-.04,0-.04.04-.04.08Z"/><path class="cls-3" d="M50.59,70.56l-7.31,1.68,15.05-21.28-8.99,1.95L83.34,4.63,28.37,63.16l15.19-3.21-21.33,22.34,14.47-3.1-8.62,17.16c-11.43-7.79-18.97-20.87-19.03-35.72-.09-23.93,19.31-43.48,43.24-43.57,5.03-.02,9.87.83,14.37,2.39l5.27-5.61c-6.05-2.54-12.7-3.93-19.67-3.9C24.41,10.05,1.83,32.8,1.93,60.66c.07,17.61,9.19,33.11,22.92,42.11l-8.77,17.44,34.49-49.65Z"/><path class="cls-2" d="M80.03,18.16L88.82.73l-34,48.29,8.99-1.95-15.05,21.28,7.31-1.68-34.49,49.65,54.25-59.5-12.99,2.76,18.59-21.89-12.6,2.67,7.97-15.79c11.45,7.78,19.01,20.88,19.07,35.74.09,23.93-19.31,43.48-43.24,43.57-5.15.02-10.09-.87-14.68-2.5l-5.14,5.64c6.1,2.59,12.81,4.01,19.85,3.98,27.86-.11,50.44-22.86,50.33-50.71-.07-17.62-9.2-33.13-22.95-42.12Z"/><path class="cls-1" d="M452.51,58.34v-1.58s5.34-4.78,5.34-4.78c.43-.38.72-.74.88-1.09.16-.35.23-.69.23-1.04,0-.44-.1-.83-.29-1.18-.19-.35-.46-.62-.8-.83-.34-.2-.73-.31-1.17-.31s-.86.11-1.21.32c-.35.21-.63.49-.83.85-.2.35-.29.73-.29,1.14h-1.82c0-.79.18-1.49.54-2.09.36-.6.85-1.07,1.48-1.4.63-.34,1.35-.51,2.16-.51s1.46.17,2.07.52c.61.35,1.09.83,1.45,1.43s.53,1.3.53,2.07c0,.56-.07,1.04-.22,1.43s-.37.75-.66,1.09c-.29.33-.66.7-1.11,1.09l-4.11,3.67-.2-.51h6.3v1.69h-8.28Z"/><path class="cls-1" d="M463.14,58.35v-1.88h1.88v1.88h-1.88Z"/><path class="cls-1" d="M470.97,58.6c-.83,0-1.57-.18-2.21-.55-.64-.37-1.14-.87-1.51-1.51s-.55-1.38-.55-2.21v-4.22c0-.83.18-1.57.55-2.21.37-.64.87-1.14,1.51-1.51.64-.37,1.38-.55,2.21-.55s1.57.18,2.21.55c.64.37,1.14.87,1.51,1.51.37.64.55,1.38.55,2.21v4.22c0,.83-.18,1.57-.55,2.21s-.87,1.14-1.51,1.51c-.64.37-1.38.55-2.21.55ZM470.97,56.9c.45,0,.87-.11,1.24-.33.37-.22.67-.51.89-.88s.33-.79.33-1.25v-4.45c0-.45-.11-.87-.33-1.24s-.52-.67-.89-.88c-.37-.22-.78-.33-1.24-.33s-.87.11-1.24.33c-.37.22-.67.51-.89.88s-.33.78-.33,1.24v4.45c0,.46.11.87.33,1.25s.52.67.89.88c.37.22.78.33,1.24.33Z"/></svg>